<?xml version="1.0" encoding="utf-8"?>
<!-- Generator: Adobe Illustrator 24.0.1, SVG Export Plug-In . SVG Version: 6.00 Build 0)  -->
<svg version="1.1" id="Calque_1" xmlns="http://www.w3.org/2000/svg" xmlns:xlink="http://www.w3.org/1999/xlink" x="0px" y="0px"
	 viewBox="0 0 300 155.4" style="enable-background:new 0 0 300 155.4;" xml:space="preserve">
<style type="text/css">
	.st0{fill:#004DAD;}
	.st1{clip-path:url(#SVGID_2_);}
	.st2{fill:#FFFFFF;stroke:#000000;stroke-width:2;stroke-miterlimit:10;}
	.st3{fill:#FFFFFF;stroke:#000000;stroke-width:2;stroke-linejoin:round;stroke-miterlimit:10;}
</style>
<g>
	<polygon class="st0" points="149.72,154.02 -0.01,99.1 149.72,44.77 299.5,99.1 	"/>
	<g>
		<polygon points="116.48,118.45 100.06,112.44 185.85,81.27 202.39,87.32 		"/>
	</g>
	<g>
		<g>
			<defs>
				<polygon id="SVGID_1_" points="196.99,-7.74 197.53,89.08 121.71,116.55 115,25.79 				"/>
			</defs>
			<clipPath id="SVGID_2_">
				<use xlink:href="#SVGID_1_"  style="overflow:visible;"/>
			</clipPath>
			<g class="st1">
				<polygon class="st2" points="183.31,3.63 183.19,100.05 122.62,124.29 122.7,28.42 				"/>
				<path class="st3" d="M122.7,28.42l5.67,2.21c0,0,5.5,3.08,7.58,5.34c5.46,5.93,16.92,19.9,22.68,25.65
					c4.94,4.94,4.83,8.1,1.76,12.64c-2.22,3.29-13.6,22.14-19.71,31.4c-2.33,3.53-8.39,9.95-8.39,9.95l-9.66,8.69L122.7,28.42z"/>
				<path class="st3" d="M183.23,99.5l-6.45-0.7c0,0-9.6-3.68-12.39-4.96c-8.5-3.89-14.34-6.41-21.95-10.97
					c-5.31-3.19-5.31-7.08-2.12-13.1c1.58-2.98,19.47-33.99,26.55-47.44c1.97-3.74,6.77-10.01,6.77-10.01l9.66-8.69L183.23,99.5z"/>
			</g>
		</g>
	</g>
	<g>
		<polygon points="116.48,118.45 108.33,115.44 194.12,84.27 202.39,87.32 		"/>
	</g>
</g>
</svg>
