<?xml version="1.0" encoding="utf-8"?>
<!-- Generator: Adobe Illustrator 24.0.3, SVG Export Plug-In . SVG Version: 6.00 Build 0)  -->
<svg version="1.1" id="Calque_1" xmlns="http://www.w3.org/2000/svg" xmlns:xlink="http://www.w3.org/1999/xlink" x="0px" y="0px"
	 viewBox="0 0 269.8 145.5" style="enable-background:new 0 0 269.8 145.5;" xml:space="preserve">
<style type="text/css">
	.st0{fill:#06AB84;}
	.st1{fill:#005D48;}
</style>
<g>
	<path class="st0" d="M129.2,40.1c-0.4-23.3-14.2-23-31.6-26.1c2.6,15.2,8.9,28.9,30.2,28c-5.7-10.9-14.2-17.1-17.6-19.7
		C110.2,22.3,122.6,29.6,129.2,40.1"/>
	<path class="st1" d="M269.8,94.9l-134.5,50.6L0,97.1l131.4-48.8c-4.1,12.2-6.4,26.2-7,41.3l-18.5,6.9l18.4,6.6l7.7,2.7l3.1,1.1
		L163.9,96l-29.1-10.3l-4.4,1.6c-0.1-13.5,1.7-28,4.6-40L269.8,94.9z"/>
	<path class="st0" d="M171.1,0c-2,20.1-8.2,33.2-33.3,37.7c-1,2.9-1.9,6.2-2.8,9.6c-2.9,12-4.7,26.6-4.6,40c0,6.5,0.5,12.8,1.5,18.4
		l-7.7-2.7c-0.1-4.6,0-9,0.1-13.4c0.6-15.1,2.9-29.1,7-41.3c5.2-15.5,13.2-28.1,24.5-36.5c-0.5,0.3-15.6,9-22.6,24.2
		C130.9,9.8,149.1,5.9,171.1,0"/>
</g>
</svg>
